HIERARCHY
ROOT Hips
{
 OFFSET 0.000000 0.000000 0.000000
 CHANNELS 6 Xposition Yposition Zposition Yrotation Xrotation Zrotation
 JOINT Chest
 {
  OFFSET 0.000000 9.585900 0.002600
  CHANNELS 3 Yrotation Xrotation Zrotation
  JOINT Chest2
  {
   OFFSET 0.000000 9.601200 -0.005300
   CHANNELS 3 Yrotation Xrotation Zrotation
   JOINT Chest3
   {
    OFFSET 0.000000 9.561800 0.000000
    CHANNELS 3 Yrotation Xrotation Zrotation
    JOINT Chest4
    {
     OFFSET 0.000000 9.552100 0.000000
     CHANNELS 3 Yrotation Xrotation Zrotation
     JOINT Neck
     {
      OFFSET 0.000000 14.453000 0.000000
      CHANNELS 3 Yrotation Xrotation Zrotation
      JOINT Head
      {
       OFFSET 0.000000 8.936500 -0.011300
       CHANNELS 3 Yrotation Xrotation Zrotation
       End Site
       {
        OFFSET 0.000000 17.073600 -0.006000
       }
      }
     }
     JOINT RightCollar
     {
      OFFSET -2.921100 9.558500 0.000000
      CHANNELS 3 Yrotation Xrotation Zrotation
      JOINT RightShoulder
      {
       OFFSET -13.519700 0.000000 0.000000
       CHANNELS 3 Yrotation Xrotation Zrotation
       JOINT RightElbow
       {
        OFFSET 0.000000 -29.696600 0.000000
        CHANNELS 3 Yrotation Xrotation Zrotation
        JOINT RightWrist
        {
         OFFSET 0.000000 -24.004700 0.000000
         CHANNELS 3 Yrotation Xrotation Zrotation
         End Site
         {
          OFFSET 0.000000 -17.728500 0.000000
         }
        }
       }
      }
     }
     JOINT LeftCollar
     {
      OFFSET 2.921100 9.558500 0.000000
      CHANNELS 3 Yrotation Xrotation Zrotation
      JOINT LeftShoulder
      {
       OFFSET 13.519700 0.000000 0.000000
       CHANNELS 3 Yrotation Xrotation Zrotation
       JOINT LeftElbow
       {
        OFFSET 0.000000 -29.696600 0.000000
        CHANNELS 3 Yrotation Xrotation Zrotation
        JOINT LeftWrist
        {
         OFFSET 0.000000 -24.004700 0.000000
         CHANNELS 3 Yrotation Xrotation Zrotation
         End Site
         {
          OFFSET 0.000000 -17.728500 0.000000
         }
        }
       }
      }
     }
    }
   }
  }
 }
 JOINT RightHip
 {
  OFFSET -7.771700 -0.012900 -0.001300
  CHANNELS 3 Yrotation Xrotation Zrotation
  JOINT RightKnee
  {
   OFFSET 0.000000 -40.869800 0.001200
   CHANNELS 3 Yrotation Xrotation Zrotation
   JOINT RightAnkle
   {
    OFFSET 0.000000 -39.717900 0.002100
    CHANNELS 3 Yrotation Xrotation Zrotation
    JOINT RightToe
    {
     OFFSET 0.000000 -4.965400 11.033500
     CHANNELS 3 Yrotation Xrotation Zrotation
     End Site
     {
      OFFSET 0.000000 -1.423100 5.872300
     }
    }
   }
  }
 }
 JOINT LeftHip
 {
  OFFSET 7.771700 -0.012900 -0.001300
  CHANNELS 3 Yrotation Xrotation Zrotation
  JOINT LeftKnee
  {
   OFFSET 0.000000 -40.869800 0.001200
   CHANNELS 3 Yrotation Xrotation Zrotation
   JOINT LeftAnkle
   {
    OFFSET 0.000000 -39.717900 0.002100
    CHANNELS 3 Yrotation Xrotation Zrotation
    JOINT LeftToe
    {
     OFFSET 0.000000 -4.965400 11.033500
     CHANNELS 3 Yrotation Xrotation Zrotation
     End Site
     {
      OFFSET 0.000000 -1.423100 5.872300
     }
    }
   }
  }
 }
}
MOTION
Frames: 13
Frame Time: 0.008333
0.000000 85.388000 0.000000 0.000000 -5.767877 0.000000 0.000000 11.653817 0.000000 0.000000 -5.885947 0.000000 0.000000 -0.000000 0.000000 0.000000 -0.000000 0.000000 0.000000 12.528835 0.000000 0.000000 0.711642 0.000000 0.000000 -0.000000 0.000000 0.000000 0.000000 -90.000000 0.000000 -2.309062 0.000000 0.000000 2.309062 0.000000 0.000000 -0.000000 0.000000 0.000000 -0.000000 90.000000 0.000000 -2.309062 0.000000 0.000000 2.309062 0.000000 0.000000 8.520406 0.000000 0.000000 1.905762 0.000000 -0.000000 -4.658285 0.000000 0.000000 -0.000000 0.000000 0.000000 8.520406 0.000000 0.000000 1.905762 0.000000 -0.000000 -4.658285 0.000000 0.000000 -0.000000 0.000000
-108.792501 57.981034 96.932113 176.805190 -30.043136 -1.614960 2.190058 20.817972 3.103783 0.080353 2.676025 0.309555 0.138991 4.375262 0.508312 0.826950 17.692598 2.179658 0.741005 15.533152 -1.348955 1.900087 -6.934952 -2.796987 5.048803 -4.001304 -0.419549 18.161158 -21.141909 -24.523719 160.627617 -73.416773 -119.253687 21.179468 -11.368593 -51.442360 -6.453843 -4.237720 -4.060377 -7.903507 -15.090487 2.181736 38.610597 -23.547705 -77.528926 12.432548 -0.137888 26.317211 5.640522 -45.177278 0.634258 -12.741527 67.790987 -18.483535 7.552996 22.643563 9.147561 -0.715981 -16.637019 2.378398 -5.999687 -42.465791 2.816091 24.273824 65.437378 21.012190 -16.808597 4.675982 -1.686184 0.027896 0.465005 -0.000171
-108.793744 57.982197 96.933405 176.813059 -30.028014 -1.623924 2.157078 20.812724 3.089626 0.091488 2.671373 0.314555 0.137939 4.376014 0.508404 0.822395 17.693913 2.179237 0.756558 15.525392 -1.351975 1.891660 -6.972022 -2.794812 5.069505 -4.007616 -0.426642 18.165063 -21.147848 -24.540609 160.659871 -73.429312 -119.281536 21.178852 -11.366189 -51.451635 -6.437553 -4.244604 -4.063135 -7.924082 -15.099589 2.187747 38.610289 -23.538715 -77.528307 12.436404 -0.135411 26.320538 5.626427 -45.193091 0.639996 -12.780224 67.773416 -18.520784 7.561076 22.669510 9.150714 -0.704364 -16.648521 2.372749 -5.993084 -42.479423 2.804299 24.265753 65.437434 21.025174 -16.792397 4.685128 -1.683007 0.011882 0.452020 -0.000996
-108.795491 57.983946 96.934237 176.820882 -30.014920 -1.630475 2.146747 20.801637 3.088851 0.079282 2.677017 0.309850 0.137088 4.376658 0.508938 0.819310 17.695160 2.180549 0.759522 15.508527 -1.353854 1.893887 -7.002666 -2.798465 5.093680 -4.023256 -0.443419 18.159668 -21.148072 -24.542897 160.686649 -73.438469 -119.304302 21.174320 -11.357743 -51.458441 -6.445748 -4.261011 -4.057003 -7.922356 -15.103589 2.189683 38.614841 -23.526620 -77.524614 12.438667 -0.138036 26.319663 5.601396 -45.205801 0.646469 -12.801999 67.756066 -18.547110 7.576535 22.690911 9.156395 -0.699818 -16.656576 2.365238 -5.988282 -42.488569 2.793536 24.265562 65.434938 21.042577 -16.790777 4.690383 -1.681628 0.007988 0.441401 -0.004647
-108.798147 57.985877 96.935131 176.837508 -30.000116 -1.635760 2.113883 20.795875 3.076677 0.078050 2.677054 0.309912 0.135279 4.376960 0.509121 0.811542 17.695679 2.180349 0.748490 15.483307 -1.355109 1.911827 -7.024261 -2.811534 5.139741 -4.048076 -0.476861 18.130651 -21.138564 -24.521205 160.687123 -73.442678 -119.293939 21.163355 -11.347807 -51.471919 -6.463120 -4.273827 -4.052165 -7.909106 -15.112232 2.193363 38.583387 -23.511041 -77.525195 12.451639 -0.178122 26.326984 5.574056 -45.220395 0.646291 -12.802223 67.746676 -18.555166 7.572783 22.704658 9.157307 -0.686052 -16.659939 2.358845 -5.969075 -42.503231 2.762488 24.260676 65.433736 21.066552 -16.783085 4.705944 -1.675685 -0.001943 0.421653 -0.011706
-108.800386 57.988121 96.935756 176.855053 -29.987040 -1.642828 2.083948 20.787682 3.066509 0.077412 2.676968 0.309883 0.134083 4.376787 0.509053 0.806825 17.695691 2.179602 0.745610 15.465769 -1.356046 1.912241 -7.048846 -2.815320 5.164666 -4.054911 -0.487937 18.123556 -21.135452 -24.521801 160.690220 -73.450587 -119.284257 21.163181 -11.337688 -51.490130 -6.454053 -4.278083 -4.051983 -7.921295 -15.120336 2.200737 38.589662 -23.501091 -77.526384 12.460918 -0.165497 26.320206 5.540194 -45.233373 0.649769 -12.801032 67.737163 -18.563134 7.570426 22.718762 9.160350 -0.671249 -16.663763 2.349092 -5.975302 -42.514738 2.754826 24.265462 65.434141 21.080127 -16.786744 4.720753 -1.675130 -0.002689 0.402392 -0.012997
-108.801688 57.991214 96.935146 176.871007 -29.982945 -1.652792 2.056878 20.792367 3.058775 0.080883 2.673309 0.312549 0.127162 4.379889 0.507334 0.808931 17.693294 2.181249 0.748085 15.452525 -1.358311 1.900984 -7.078045 -2.814402 5.183836 -4.063016 -0.497891 18.119765 -21.129254 -24.549601 160.774923 -73.466354 -119.364514 21.145622 -11.323112 -51.494749 -6.449904 -4.284813 -4.051118 -7.915790 -15.122612 2.200105 38.579680 -23.496665 -77.530157 12.466113 -0.157243 26.315207 5.501684 -45.235865 0.662734 -12.851832 67.721203 -18.624366 7.596459 22.725405 9.168509 -0.676666 -16.663167 2.344125 -5.982666 -42.517482 2.750622 24.293986 65.435448 21.120245 -16.804148 4.729471 -1.680749 -0.003427 0.384173 -0.009113
-108.809043 57.992651 96.936652 176.954972 -29.959987 -1.659747 1.967883 20.774840 3.018680 0.078155 2.674496 0.311338 0.126222 4.379750 0.506510 0.796936 17.694095 2.180026 0.761985 15.446231 -1.359515 1.881131 -7.111805 -2.810271 5.206881 -4.074051 -0.512700 18.110364 -21.126325 -24.551161 160.809340 -73.498810 -119.383267 21.164764 -11.327585 -51.517891 -6.472511 -4.300148 -4.036907 -7.890721 -15.128400 2.198010 38.562950 -23.482555 -77.532288 12.474068 -0.167278 26.317223 5.461125 -45.253164 0.610545 -12.931364 67.704753 -18.700017 7.574891 22.728624 9.128194 -0.649903 -16.651575 2.369435 -6.008376 -42.542988 2.691967 24.306278 65.435621 21.148642 -16.819190 4.752813 -1.684932 -0.000965 0.355783 -0.007166
-108.810267 57.993961 96.938960 176.962482 -29.936749 -1.664194 1.958542 20.754080 3.016822 0.069570 2.679038 0.304539 0.131926 4.374877 0.509339 0.797719 17.692434 2.180124 0.754957 15.435441 -1.357875 1.870230 -7.135906 -2.806942 5.214410 -4.085579 -0.517852 18.104186 -21.121578 -24.556301 160.872057 -73.520915 -119.433373 21.175024 -11.322142 -51.531106 -6.485543 -4.306405 -4.027921 -7.892468 -15.134222 2.206100 38.529341 -23.460766 -77.541937 12.472666 -0.199336 26.328073 5.454569 -45.276138 0.608735 -13.043113 67.676864 -18.810107 7.623834 22.743605 9.138774 -0.651653 -16.653975 2.367687 -6.002598 -42.565815 2.684709 24.313945 65.435482 21.170032 -16.821401 4.765886 -1.687449 0.005891 0.339138 -0.004221
-108.811854 57.996124 96.939466 176.976925 -29.926073 -1.668633 1.934077 20.749492 2.998468 0.076453 2.675154 0.310179 0.132736 4.373974 0.509469 0.801218 17.690632 2.181325 0.744199 15.423917 -1.355399 1.864155 -7.147602 -2.803649 5.218966 -4.094154 -0.525084 18.095130 -21.118320 -24.549977 160.903853 -73.532153 -119.457738 21.172931 -11.310921 -51.543658 -6.502552 -4.311296 -4.018207 -7.906103 -15.145307 2.222682 38.524070 -23.433705 -77.543819 12.467499 -0.213211 26.327476 5.446790 -45.285135 0.603904 -13.075383 67.663830 -18.846340 7.633515 22.751426 9.149470 -0.648275 -16.653789 2.363747 -5.982402 -42.574676 2.659910 24.303042 65.433599 21.185176 -16.825076 4.776523 -1.689463 0.009820 0.325173 -0.003605
-108.813132 57.998283 96.939665 176.991645 -29.918105 -1.674718 1.917674 20.744223 2.989467 0.077779 2.673661 0.311807 0.133918 4.373350 0.509623 0.806426 17.689018 2.181325 0.731762 15.413234 -1.350929 1.868719 -7.143581 -2.803141 5.222388 -4.105397 -0.526176 18.085522 -21.111584 -24.547919 160.934492 -73.543023 -119.481586 21.164288 -11.304902 -51.551646 -6.524939 -4.317407 -4.005300 -7.902431 -15.151873 2.226737 38.525369 -23.416968 -77.541386 12.460243 -0.208113 26.321888 5.440219 -45.290131 0.599890 -13.089422 67.652517 -18.861079 7.624930 22.756257 9.153085 -0.635543 -16.649805 2.359923 -5.982891 -42.580436 2.650231 24.299809 65.434195 21.193121 -16.823047 4.785777 -1.688013 0.000877 0.312746 -0.005312
-108.814612 57.999995 96.940202 177.005434 -29.908144 -1.679431 1.901441 20.738454 2.979828 0.080567 2.670337 0.315959 0.134472 4.373123 0.509681 0.809573 17.687293 2.178937 0.714608 15.394159 -1.353558 1.856742 -7.151854 -2.792424 5.233032 -4.119252 -0.529416 18.064713 -21.105189 -24.548584 160.996595 -73.565762 -119.530773 21.173382 -11.300004 -51.561717 -6.542806 -4.322464 -3.993496 -7.889130 -15.150407 2.222425 38.514680 -23.410684 -77.541670 12.454372 -0.205400 26.318921 5.433083 -45.298715 0.594229 -13.084418 67.646938 -18.857649 7.615053 22.756029 9.150474 -0.629751 -16.643051 2.362638 -5.979383 -42.590627 2.638165 24.294392 65.438444 21.198839 -16.814772 4.796138 -1.682181 -0.006772 0.298947 -0.008358
-108.815678 58.001172 96.941282 177.022496 -29.894962 -1.688991 1.883889 20.730114 2.975475 0.081601 2.669389 0.313738 0.135413 4.371407 0.509699 0.814956 17.683849 2.182511 0.704749 15.386281 -1.353316 1.838592 -7.168722 -2.786717 5.240363 -4.136942 -0.542521 18.044607 -21.100503 -24.534097 161.044796 -73.585903 -119.568143 21.178179 -11.294149 -51.569162 -6.550044 -4.322946 -3.987548 -7.902263 -15.166007 2.233968 38.505511 -23.392740 -77.536569 12.457423 -0.210890 26.316943 5.454348 -45.312890 0.577910 -13.117731 67.642698 -18.873831 7.587689 22.759334 9.140789 -0.609917 -16.638410 2.369494 -5.979387 -42.605346 2.629903 24.285755 65.443393 21.203203 -16.806907 4.807778 -1.676737 -0.009962 0.285099 -0.010785
